<?xml version="1.0" encoding="UTF-8"?>
<svg id="Layer_2" data-name="Layer 2" xmlns="http://www.w3.org/2000/svg" viewBox="0 0 420.68 476.78">
  <defs>
    <style>
      .cls-1 {
        fill: #fff;
      }

      .cls-2, .cls-3 {
        stroke: #000;
        stroke-miterlimit: 10;
      }

      .cls-3 {
        fill: none;
        stroke-linecap: round;
        stroke-width: 19px;
      }
    </style>
  </defs>
  <g id="Layer_1-2" data-name="Layer 1">
    <g>
      <path class="cls-1" d="M29.36,461.78c-6.91,0-14.36-5.49-14.36-14.36V29.36c0-8.87,7.46-14.36,14.36-14.36,2.47,0,4.86.66,7.11,1.96l362.05,209.03c6.46,3.73,7.16,9.91,7.16,12.4s-.7,8.67-7.16,12.4L36.48,459.82c-2.25,1.3-4.65,1.96-7.11,1.96h0Z"/>
      <path d="M30,30.54l360,207.85L30,446.24V30.54M29.36,0C14.05,0,0,12.25,0,29.36v418.06c0,17.11,14.05,29.36,29.36,29.36,4.88,0,9.89-1.24,14.61-3.97l362.05-209.03c19.55-11.28,19.55-39.5,0-50.78L43.98,3.97c-4.72-2.73-9.73-3.97-14.61-3.97h0Z"/>
    </g>
    <line class="cls-3" x1="243.21" y1="131.96" x2="9.82" y2="281.56"/>
    <path class="cls-2" d="M406.71,235.16c-.21-4.62-1.72-9.41-5.23-12.63-3.35-3.08-7.92-5.56-12.63-5.23-.82.06-1.63.07-2.44.05-.89-.21-1.76-.45-2.63-.75-2.31-1.17-4.51-2.56-6.61-4.08-2.23-1.83-4.38-3.75-6.5-5.7-3.31-3.04-7.99-5.44-12.63-5.23l-4.75.64c-.35.08-.68.2-1.01.31-4.15-4.7-9.01-8.71-14.57-12-16.07-10.85-32.15-21.69-48.22-32.54-4.53-3.06-9.07-6.12-13.6-9.18-6.83-4.35-14.21-6.71-22.13-7.06-7.91-1.77-15.83-1.42-23.74,1.06-4.74,2-9.48,4-14.22,6-6.47,3.83-11.97,8.62-16.53,14.36-.53.53-1.08,1.05-1.63,1.57-3.13,2.14-6.3,4.22-9.45,6.33-6.14,4.1-12.27,8.2-18.41,12.3l-36.4,24.32c-6.89,4.61-13.79,9.21-20.68,13.82-5.87,3.17-10.75,7.33-14.66,12.46-.6.24-1.21.47-1.81.72-7.46,3.1-14.99,6.12-22.28,9.62-5.6,2.69-11.06,5.67-16.43,8.78-6.1,3.54-12.1,7.27-18.09,11-4.02,3.1-8.03,6.21-12.05,9.31-5.81,5.39-9.91,11.78-12.31,19.16-2.69,4.64-4.05,9.65-4.06,15.02-1.44,6.42-1.45,12.83-.09,19.25-.03.1-.05.2-.08.31-2.27,8.76-3.24,17.37-4.36,26.47-1.09,8.85.67,17.48,2.09,26.3.28,1.74.76,3.41,1.4,5.05,1.7,4.31,3.57,8.82,5.49,13.11-1.4,1.75-2.45,3.74-2.84,5.91-1.97,11.09-3.21,22.35-3.29,33.62-.04,6.09,3.24,11.89,8.37,15.12-.24.76-.48,1.51-.75,2.27-1.17,3.23,1.82,6.17,4.82,6.33,15.57.83,28.27-8.8,39.96-17.83l13.86-10.7c3.35-.29,6.7-.93,10.05-1.98,8.01-2.25,15.17-5.96,21.51-11.08,3.3-.85,6.62-1.62,9.89-2.55,3.45-.98,6.85-2.15,10.17-3.48,7.97-3.19,16.07-6.43,23.76-10.34,17.4-8.84,32.76-21.46,48.03-33.42,4.3-3.37,8.57-6.79,12.86-10.18,8.75-6.53,17.79-12.65,27.48-17.71,6.79-3.54,13.78-6.67,20.63-10.09,6.7-3.34,13.09-7.13,19.41-11.12,4.9-3.1,9.8-6.2,14.92-8.92,4.03-1.32,8.11-2.47,12.14-3.82,7.89-2.64,15.64-5.9,23.11-9.54,1.48-.72,2.92-1.51,4.31-2.4.67-.42,1.32-.87,1.96-1.34,4.72-3.44,9.44-7.04,13.93-10.78,2.94-2.96,5.51-6.15,7.73-9.54,1.23-1.03,2.3-2.21,3.22-3.53,1.48-1.7,3.07-3.28,4.78-4.75,2.09-1.46,4.29-2.74,6.59-3.85,1.82-.65,3.69-1.18,5.58-1.6.09-.02.18-.03.27-.05.37-.06.69-.13,1.05-.24,4.12-1.34,7.78-3.82,10.18-7.45,2.34.04,4.54-.47,6.58-1.54,2.21-.72,4.13-1.95,5.75-3.69,1.74-1.62,2.97-3.53,3.69-5.75,1.12-2.13,1.63-4.42,1.54-6.88Z"/>
  </g>
</svg>