<?xml version="1.0" encoding="UTF-8"?>
<svg id="Layer_2" data-name="Layer 2" xmlns="http://www.w3.org/2000/svg" viewBox="0 0 1730.24 444.6">
  <g id="Layer_1-2" data-name="Layer 1">
    <g>
      <path d="M265.5,177.75c4.05,0,5.4,2.25,5.4,4.95s-3.6,4.95-7.65,4.95c-35.55,0-66.15-25.65-66.15-63.45,0-58.5,62.55-103.95,146.7-103.95,53.1,0,101.7,21.6,143.55,50.4,13.95-3.6,28.8-5.85,44.1-5.85,6.75,0,9.9,4.95,9.9,7.65,0,3.6-2.7,6.75-4.95,9.45-29.7,32.85-70.65,94.95-95.4,157.5,8.1-2.7,16.2-7.2,24.3-12.6,2.7-1.8,3.6-2.7,5.4-2.7s3.6,2.25,3.6,3.6c0,2.25-1.35,4.05-4.5,6.3-11.25,8.55-22.05,14.85-34.2,18.9-9.9,27.9-15.75,54.9-15.75,79.2,0,44.55,24.75,72,76.05,72,76.05,0,138.15-52.2,208.8-52.2,61.2,0,72,40.95,72,40.95,0,0,.45,1.8.45,3.6,0,2.25-2.7,4.5-5.85,4.5-4.05,0-5.4-4.05-5.4-4.05-2.7-5.85-13.5-32.4-59.85-32.4-68.4,0-129.15,52.65-210.15,52.65-60.3,0-91.8-35.55-91.8-84.6,0-23.4,5.4-49.05,13.95-74.7-9.45,1.35-19.35,2.25-30.6,2.25-22.5,0-48.15-4.05-75.6-8.55-63.9,94.5-125.55,193.05-216,193.05-58.05,0-95.85-35.55-95.85-87.3,0-89.55,99.9-135,192.6-135,36.9,0,75.6,6.75,111.6,13.5,47.7-70.2,99.9-137.7,171-161.55-38.25-22.95-81.9-40.95-127.8-40.95-75.15,0-134.55,39.6-134.55,91.8,0,34.2,28.8,52.65,52.65,52.65ZM295.65,248.85c-32.85-5.85-67.95-11.7-102.6-11.7-86.4,0-177.75,40.05-177.75,120.15,0,45,32.4,73.35,80.55,73.35,82.8,0,138.6-90.9,199.8-181.8ZM422.55,244.35c25.2-66.6,70.2-132.75,101.7-166.95-8.1,0-16.2.9-23.85,2.25.45.45.9.9,1.35.9,1.35.9,2.7,2.25,2.7,3.6,0,1.8-2.7,4.5-4.5,4.5-1.35,0-2.7-.9-5.4-2.7l-5.85-3.6c-67.95,17.55-119.25,84.6-167.85,156.15,25.65,4.5,49.5,8.1,69.3,8.1,12.15,0,22.5-.45,32.4-2.25Z"/>
      <path d="M510.75,332.1c-25.65,0-40.5-15.75-40.5-36,0-42.3,51.75-89.1,86.4-89.1,14.4,0,24.75,7.65,24.75,19.35,0,10.8-11.7,20.25-14.85,20.25s-5.4-2.7-5.4-5.4c0-2.25,7.65-7.2,7.65-14.85,0-3.6-2.25-7.65-9-7.65-29.25,0-73.8,40.5-73.8,77.85,0,15.3,10.35,23.85,26.55,23.85,45.9,0,80.55-37.8,91.35-49.5,0,0,2.25-2.7,4.5-2.7s4.95,2.7,4.95,4.95c0,1.8-2.25,4.5-2.25,4.5-10.8,11.7-52.65,54.45-100.35,54.45Z"/>
      <path d="M598.05,194.85c-2.25,0-4.95-1.35-4.95-4.5,0-4.5,8.1-11.7,26.55-11.7,8.55,0,18.9.9,29.7,2.25,22.95-31.95,45.9-57.6,52.65-65.25,2.7-3.15,4.95-4.5,6.75-4.5,4.95,0,7.65,5.4,7.65,8.1,0,2.25-1.35,3.15-4.95,7.65-5.85,6.75-25.65,28.8-46.35,56.25,17.1,2.7,32.85,4.95,43.2,4.95,5.4,0,6.3,1.8,6.3,3.6,0,3.15-5.4,7.65-9.45,7.65-11.7,0-30.15-2.7-48.15-4.95-22.5,31.95-42.75,70.65-42.75,103.5,0,9.9,6.75,13.05,13.05,13.05,31.5,0,67.5-40.05,67.5-40.05,0,0,2.25-2.7,4.05-2.7,2.7,0,5.4,2.7,5.4,4.95,0,1.8-2.25,4.5-2.25,4.5,0,0-41.85,46.35-78.75,46.35-14.4,0-25.65-9.45-25.65-25.2,0-31.95,20.7-72,44.1-106.65-9-.9-17.55-1.8-24.3-1.8-13.5,0-16.2,4.5-19.35,4.5Z"/>
      <path d="M1262.69,211.5c10.8,0,18,7.2,18,18.9,0,23.4-42.3,51.75-42.3,72.45,0,5.4,2.25,8.55,10.35,8.55,31.95,0,67.05-40.5,67.05-40.5,0,0,2.25-2.7,4.5-2.7,2.7,0,4.95,2.7,4.95,4.95,0,1.8-2.25,4.5-2.25,4.5,0,0-41.85,46.35-77.4,46.35-13.5,0-22.95-7.65-22.95-20.7,0-28.35,42.3-55.35,42.3-72.9,0-4.5-3.15-4.95-4.5-4.95-19.8,0-91.8,45.45-135,100.8-4.05,5.4-6.3,8.1-13.05,8.1-4.5,0-8.1-3.6-8.1-6.75,0-4.5,1.8-9.9,4.5-18,16.65-50.4,53.1-142.65,103.95-207.45-22.95-8.1-46.35-18.45-69.75-28.35-95.85,117.45-128.25,361.8-266.4,361.8-52.65,0-76.5-47.7-76.5-52.2,0-1.8,2.7-3.6,4.05-3.6,3.6,0,24.3,42.75,74.7,42.75,120.6,0,153.9-234.45,250.2-354.15-36.45-13.95-74.7-25.65-116.1-25.65-111.6,0-184.95,67.05-184.95,139.95s59.85,96.75,85.05,96.75c3.6,0,6.75,1.35,6.75,4.05,0,3.15-4.05,4.5-10.35,4.5-26.1,0-99-27.9-99-108.9S893.24,27.9,1011.59,27.9c47.25,0,88.65,13.5,127.8,29.25,31.05-34.65,68.85-57.15,117.45-57.15,8.1,0,9.45,3.15,9.45,6.3,0,2.7-2.25,6.3-9,6.3-42.75,0-76.5,19.8-104.4,49.95,23.4,9.9,46.35,20.25,68.85,28.35,30.6-35.55,66.15-60.75,105.3-60.75,25.65,0,47.7,11.25,47.7,37.35s-34.2,50.85-79.65,50.85c-23.4,0-46.35-4.95-68.85-12.15-49.5,64.35-86.85,159.3-104.4,205.65,42.75-47.7,116.1-100.35,140.85-100.35ZM1235.24,95.4c19.8,6.3,40.05,10.35,60.3,10.35,40.05,0,66.15-17.55,66.15-40.05,0-16.65-16.65-24.3-36.9-24.3-32.4,0-62.55,22.05-89.55,54Z"/>
      <path d="M1403.54,223.65c4.95,2.25,8.1,4.95,8.1,9.45,0,19.35-39.15,47.25-39.15,73.35,0,8.1,4.95,11.7,12.15,11.7,21.15,0,47.25-21.15,70.65-47.25,0,0,2.25-2.7,4.5-2.7s4.95,2.7,4.95,4.95c0,1.8-2.25,4.5-2.25,4.5-25.2,27.45-56.7,52.2-80.55,52.2-13.5,0-24.3-8.55-24.3-22.5,0-27.9,36.45-54.9,36.45-70.65,0-2.25-2.25-4.05-5.4-6.3-9.45-6.75-14.85-10.35-17.55-10.35-1.8,0-3.15,1.35-5.85,4.95-6.75,9.45-25.65,33.75-42.3,52.65,0,0-2.25,2.25-4.5,2.25-2.7,0-4.95-2.7-4.95-4.5s2.25-4.5,2.25-4.5c15.3-17.1,39.6-50.85,46.8-64.8,5.4-10.8,13.05-39.6,24.3-39.6,4.5,0,9.9,5.85,9.9,9.45,0,6.75-19.35,22.95-19.35,29.7,0,2.7,17.1,13.05,26.1,18Z"/>
      <path d="M1492.64,334.8c-24.3,0-44.1-14.4-44.1-40.05,0-41.85,56.25-87.3,90.9-87.3,13.95,0,23.4,8.1,23.4,19.35,0,27-60.3,51.75-97.65,61.2-.9,2.7-.9,5.4-.9,8.1,0,15.75,11.7,25.65,28.35,25.65,54,0,95.4-50.85,95.4-50.85,0,0,2.25-2.7,4.5-2.7,2.7,0,4.95,2.7,4.95,4.95,0,1.8-2.25,4.5-2.25,4.5,0,0-50.4,57.15-102.6,57.15ZM1469.24,274.95c34.2-9,80.1-30.6,80.1-49.5,0-1.35-1.35-5.4-8.1-5.4-24.75,0-58.95,27-72,54.9Z"/>
      <path d="M1625.39,334.8c-24.3,0-44.1-14.4-44.1-40.05,0-41.85,56.25-87.3,90.9-87.3,13.95,0,23.4,8.1,23.4,19.35,0,27-60.3,51.75-97.65,61.2-.9,2.7-.9,5.4-.9,8.1,0,15.75,11.7,25.65,28.35,25.65,54,0,95.4-50.85,95.4-50.85,0,0,2.25-2.7,4.5-2.7,2.7,0,4.95,2.7,4.95,4.95,0,1.8-2.25,4.5-2.25,4.5,0,0-50.4,57.15-102.6,57.15ZM1601.99,274.95c34.2-9,80.1-30.6,80.1-49.5,0-1.35-1.35-5.4-8.1-5.4-24.75,0-58.95,27-72,54.9Z"/>
    </g>
  </g>
</svg>